{"accessors":[{"bufferView":0,"byteOffset":0,"componentType":5126,"count":11380,"max":[41.032528,0,10.969353],"min":[-41.032528,-2.54619,-49.303139],"normalized":false,"type":"VEC3"},{"bufferView":1,"byteOffset":0,"componentType":5126,"count":11380,"max":[0.999969,0,0,1],"min":[0.999969,-0.007936,-0.007936,1],"normalized":false,"type":"VEC4"},{"bufferView":2,"byteOffset":0,"componentType":5126,"count":11380,"max":[0.008127,1,0.007936],"min":[-0.007999,0.992412,-0.122954],"normalized":false,"type":"VEC3"},{"bufferView":3,"byteOffset":0,"componentType":5126,"count":11380,"max":[1,-0.000082],"min":[0,-0.845703],"normalized":false,"type":"VEC2"},{"bufferView":4,"byteOffset":0,"componentType":5125,"count":25242,"max":[11379],"min":[0],"normalized":false,"type":"SCALAR"},{"bufferView":5,"byteOffset":0,"componentType":5126,"count":262,"max":[35.903461,0,10.969353],"min":[-36.929276,-75,10.969353],"normalized":false,"type":"VEC3"},{"bufferView":6,"byteOffset":0,"componentType":5126,"count":262,"max":[0.999969,0,-0.007936,1],"min":[0.999969,0,-0.007936,1],"normalized":false,"type":"VEC4"},{"bufferView":7,"byteOffset":0,"componentType":5126,"count":262,"max":[0,0,1],"min":[0,0,1],"normalized":false,"type":"VEC3"},{"bufferView":8,"byteOffset":0,"componentType":5126,"count":262,"max":[0.937012,1],"min":[0.049988,-0.000082],"normalized":false,"type":"VEC2"},{"bufferView":9,"byteOffset":0,"componentType":5125,"count":426,"max":[261],"min":[0],"normalized":false,"type":"SCALAR"}],"asset":{"generator":"Godot Engine v3.5.1.stable.official@6fed1ffa313c6760fa88b368ae580378daaef0f0","version":"2.0"},"bufferViews":[{"buffer":0,"byteLength":136560,"byteOffset":0},{"buffer":0,"byteLength":182080,"byteOffset":136560},{"buffer":0,"byteLength":136560,"byteOffset":318640},{"buffer":0,"byteLength":91040,"byteOffset":455200},{"buffer":0,"byteLength":100968,"byteOffset":546240},{"buffer":0,"byteLength":3144,"byteOffset":647208},{"buffer":0,"byteLength":4192,"byteOffset":650352},{"buffer":0,"byteLength":3144,"byteOffset":654544},{"buffer":0,"byteLength":2096,"byteOffset":657688},{"buffer":0,"byteLength":1704,"byteOffset":659784}],"buffers":[{"byteLength":661488,"uri":"ocean-impostor0.bin"}],"extensionsRequired":["KHR_texture_transform"],"extensionsUsed":["KHR_lights_punctual","KHR_texture_transform"],"images":[{"uri":"textures/OCEAN-surface_albedo.png"},{"uri":"textures/OCEAN-submegred_albedo.png"}],"materials":[{"doubleSided":true,"name":"OCEAN-surface","pbrMetallicRoughness":{"baseColorFactor":[1,1,1,1],"baseColorTexture":{"extensions":{"KHR_texture_transform":{"offset":[0,0],"scale":[1,1]}},"index":0},"metallicFactor":0,"roughnessFactor":0.4}},{"doubleSided":true,"name":"OCEAN-submegred","pbrMetallicRoughness":{"baseColorFactor":[1,1,1,1],"baseColorTexture":{"extensions":{"KHR_texture_transform":{"offset":[0,0],"scale":[1,1]}},"index":1},"metallicFactor":0,"roughnessFactor":0.5}}],"meshes":[{"extras":{"targetNames":[]},"primitives":[{"attributes":{"NORMAL":2,"POSITION":0,"TANGENT":1,"TEXCOORD_0":3},"indices":4,"material":0,"mode":4},{"attributes":{"NORMAL":7,"POSITION":5,"TANGENT":6,"TEXCOORD_0":8},"indices":9,"material":1,"mode":4}]}],"nodes":[{"children":[1],"extensions":{},"name":"ocean-impostor"},{"extensions":{},"mesh":0,"name":"ocean_impostor_improved"}],"scene":0,"scenes":[{"nodes":[0]}],"textures":[{"source":0},{"source":1}]}